<?xml version="1.0" encoding="UTF-8"?>
<svg width="32px" height="32px" viewBox="0 0 32 32" version="1.1" xmlns="http://www.w3.org/2000/svg" xmlns:xlink="http://www.w3.org/1999/xlink">
    <title>4944C884-3728-4785-8EC6-5574E3B7F6A9</title>
    <defs>
        <radialGradient cx="50%" cy="50%" fx="50%" fy="50%" r="111.709568%" id="radialGradient-1">
            <stop stop-color="#FFFFFF" stop-opacity="0" offset="0%"></stop>
            <stop stop-color="#FFFFFF" stop-opacity="0.898805418" offset="100%"></stop>
        </radialGradient>
    </defs>
    <g id="Desktop" stroke="none" stroke-width="1" fill="none" fill-rule="evenodd">
        <g id="01-Personal-Loan-Mobile-Number_Empty" transform="translate(-96.000000, -154.000000)">
            <g id="Tick-1" transform="translate(96.000000, 154.000000)">
                <path d="M16,0.48 C20.28352,0.48 24.1634819,2.21830438 26.9725887,5.02741125 C29.7816956,7.83651813 31.52,11.71648 31.52,16 C31.52,20.28352 29.7816956,24.1634819 26.9725887,26.9725887 C24.1634819,29.7816956 20.28352,31.52 16,31.52 C11.71648,31.52 7.83651813,29.7816956 5.02741125,26.9725887 C2.21830438,24.1634819 0.48,20.28352 0.48,16 C0.48,11.71648 2.21830438,7.83651813 5.02741125,5.02741125 C7.83651813,2.21830438 11.71648,0.48 16,0.48 Z" id="🔹Icon-Color" stroke-opacity="0.3" stroke="#FFFFFF" stroke-width="0.96" fill="url(#radialGradient-1)" fill-rule="nonzero"></path>
                <path d="M16,4.8 C9.8176,4.8 4.8,9.8176 4.8,16 C4.8,22.1824 9.8176,27.2 16,27.2 C22.1824,27.2 27.2,22.1824 27.2,16 C27.2,9.8176 22.1824,4.8 16,4.8 Z" id="🔹Icon-Color" fill="#F7FAFF"></path>
                <path d="M20.643657,13.0913455 C21.0458338,12.7028848 21.6926861,12.7028848 22.0948629,13.0913455 C22.5017124,13.4843196 22.5017124,14.123209 22.0948629,14.516183 L22.0948629,14.516183 L15.8928075,20.5066946 C15.4986369,20.8974413 14.8421141,20.8974413 14.4395992,20.508654 L14.4395992,20.508654 L11.5051371,17.6742705 C11.0982876,17.2812965 11.0982876,16.642407 11.5051371,16.249433 C11.9073139,15.8609723 12.5541662,15.8609723 12.956074,16.2491737 L12.956074,16.2491737 L15.1695385,18.3783781 Z" id="Path" fill="#052F5F" fill-rule="nonzero" opacity="0.800000012"></path>
            </g>
        </g>
    </g>
</svg>